<svg xmlns="http://www.w3.org/2000/svg" viewBox="0 0 100 100">
  <defs>
    <linearGradient id="grad-apri" x1="0" y1="0" x2="1" y2="1">
      <stop offset="0%" stop-color="#FBBF24"/>
      <stop offset="100%" stop-color="#F59E0B"/>
    </linearGradient>
    <radialGradient id="gloss-apri" cx="30%" cy="20%" r="60%">
      <stop offset="0%" stop-color="#ffffff" stop-opacity="0.55"/>
      <stop offset="60%" stop-color="#ffffff" stop-opacity="0"/>
    </radialGradient>
    <filter id="shadow-apri" x="-30%" y="-30%" width="160%" height="160%">
      <feDropShadow dx="0" dy="4" stdDeviation="4" flood-color="#F59E0B" flood-opacity="0.55"/>
    </filter>
    <filter id="glyphshadow-apri" x="-50%" y="-50%" width="200%" height="200%">
      <feDropShadow dx="0" dy="1.5" stdDeviation="1.2" flood-color="#00000055"/>
    </filter>
  </defs>
  <rect x="6" y="6" width="88" height="88" rx="26" fill="url(#grad-apri)" filter="url(#shadow-apri)"/>
  <rect x="6" y="6" width="88" height="88" rx="26" fill="url(#gloss-apri)"/>
  <rect x="6" y="50" width="88" height="44" rx="26" fill="#000000" opacity="0.08"/>
  <g filter="url(#glyphshadow-apri)" fill="#ffffff" stroke="#ffffff" stroke-width="0">
    <path d="M14 34V24a6 6 0 0 1 6-6h16l7 8h27a6 6 0 0 1 6 6v2" fill="none" stroke="#fff" stroke-width="7" stroke-linecap="round" stroke-linejoin="round"/>
           <path d="M14 34h72l-9 38a8 8 0 0 1-7.8 6.2H30.8A8 8 0 0 1 23 72.2L14 34Z"/>
  </g>
</svg>
