<svg xmlns="http://www.w3.org/2000/svg" viewBox="0 0 100 100" width="200" height="200">
  <defs>
    <linearGradient id="grad-medaglia" x1="0" y1="0" x2="1" y2="1">
      <stop offset="0%" stop-color="#FFD54A"/>
      <stop offset="100%" stop-color="#D89A00"/>
    </linearGradient>
    <radialGradient id="gloss-medaglia" cx="30%" cy="20%" r="60%">
      <stop offset="0%" stop-color="#ffffff" stop-opacity="0.55"/>
      <stop offset="60%" stop-color="#ffffff" stop-opacity="0"/>
    </radialGradient>
    <filter id="shadow-medaglia" x="-30%" y="-30%" width="160%" height="160%">
      <feDropShadow dx="0" dy="4" stdDeviation="4" flood-color="#D89A00" flood-opacity="0.55"/>
    </filter>
    <filter id="glyphshadow-medaglia" x="-50%" y="-50%" width="200%" height="200%">
      <feDropShadow dx="0" dy="1.5" stdDeviation="1.2" flood-color="#00000055"/>
    </filter>
    <linearGradient id="disco-medaglia" x1="0" y1="0" x2="1" y2="1">
      <stop offset="0%" stop-color="#FFE187"/>
      <stop offset="100%" stop-color="#C98A00"/>
    </linearGradient>
  </defs>

  <rect x="6" y="6" width="88" height="88" rx="26" fill="url(#grad-medaglia)" filter="url(#shadow-medaglia)"/>
  <rect x="6" y="6" width="88" height="88" rx="26" fill="url(#gloss-medaglia)"/>
  <rect x="6" y="50" width="88" height="44" rx="26" fill="#000000" opacity="0.08"/>

  <g filter="url(#glyphshadow-medaglia)">
    <path d="M35 14 L48 46 L38 51 L24 20Z" fill="#3B6FD1"/>
    <path d="M65 14 L52 46 L62 51 L76 20Z" fill="#C23B3B"/>
    <circle cx="50" cy="63" r="23" fill="url(#disco-medaglia)" stroke="#ffffff" stroke-width="3"/>
    <path d="M50 51.5l3.4 6.9 7.6 1.1-5.5 5.4 1.3 7.6L50 68.8l-6.8 3.7 1.3-7.6-5.5-5.4 7.6-1.1Z" fill="#ffffff"/>
  </g>
</svg>
